<svg width="500" height="328" viewBox="0 0 500 328" fill="none" xmlns="http://www.w3.org/2000/svg">
<g filter="url(#filter0_f_1310_1413)">
<circle cx="162" cy="205" r="24" fill="#9FC9F6"/>
<circle cx="372" cy="44" r="24" fill="#9FC9F6"/>
<circle cx="432" cy="125" r="24" fill="#9FC9F6"/>
<circle cx="302" cy="284" r="24" fill="#9FC9F6"/>
<path fill-rule="evenodd" clip-rule="evenodd" d="M435.535 101.262C407.05 97.019 399 71 395.738 47.5352L368.464 67.7379C396.95 71.9804 399.5 94.5 408.262 121.464L435.535 101.262Z" fill="#9FC9F6"/>
<path fill-rule="evenodd" clip-rule="evenodd" d="M410.908 113.551C291 159.5 292 163 173.45 183.909L183.092 216.451C234 178.5 391 143 420.55 146.093L410.908 113.551Z" fill="#9FC9F6"/>
<path fill-rule="evenodd" clip-rule="evenodd" d="M295.56 260.88C266.94 260.88 198.5 218.5 185.12 198.561L168.44 228.12C196.5 228.12 271.153 262.696 278.88 290.44L295.56 260.88Z" fill="#9FC9F6"/>
</g>
<path d="M0 46H500" stroke="black" stroke-opacity="0.14"/>
<path d="M0 126H500" stroke="black" stroke-opacity="0.14"/>
<path d="M0 206H500" stroke="black" stroke-opacity="0.14"/>
<path d="M0 286H500" stroke="black" stroke-opacity="0.14"/>
<circle cx="303.25" cy="286" r="10" fill="#32312A"/>
<g filter="url(#filter1_f_1310_1413)">
<circle cx="166.25" cy="206" r="12" fill="#FFAF7A"/>
</g>
<circle cx="166.25" cy="206" r="5" fill="#32312A"/>
<circle cx="432.25" cy="126" r="10" fill="#32312A"/>
<circle cx="374.25" cy="46" r="10" fill="#32312A"/>
<path d="M10.7393 34V25.4619H7.63574V24.1357H15.374V25.4619H12.2705V34H10.7393ZM18.8669 34.1436C18.1423 34.1436 17.5156 33.9886 16.987 33.6787C16.4629 33.3688 16.0596 32.9268 15.777 32.3525C15.4945 31.7738 15.3532 31.0879 15.3532 30.2949V30.2812C15.3532 29.4837 15.4945 28.7979 15.777 28.2236C16.0641 27.6494 16.4697 27.2074 16.9938 26.8975C17.5225 26.5876 18.1468 26.4326 18.8669 26.4326C19.5915 26.4326 20.2158 26.5876 20.7399 26.8975C21.264 27.2028 21.6673 27.6449 21.9499 28.2236C22.237 28.7979 22.3805 29.4837 22.3805 30.2812V30.2949C22.3805 31.0879 22.237 31.7738 21.9499 32.3525C21.6673 32.9268 21.264 33.3688 20.7399 33.6787C20.2204 33.9886 19.596 34.1436 18.8669 34.1436ZM18.8669 32.8994C19.2907 32.8994 19.6507 32.7969 19.9469 32.5918C20.2432 32.3822 20.4687 32.0837 20.6237 31.6963C20.7786 31.3089 20.8561 30.8418 20.8561 30.2949V30.2812C20.8561 29.7298 20.7786 29.2604 20.6237 28.873C20.4687 28.4857 20.2432 28.1895 19.9469 27.9844C19.6507 27.7747 19.2907 27.6699 18.8669 27.6699C18.443 27.6699 18.083 27.7747 17.7868 27.9844C17.4906 28.1895 17.2627 28.4857 17.1032 28.873C16.9482 29.2604 16.8708 29.7298 16.8708 30.2812V30.2949C16.8708 30.8418 16.9482 31.3089 17.1032 31.6963C17.2627 32.0837 17.4906 32.3822 17.7868 32.5918C18.083 32.7969 18.443 32.8994 18.8669 32.8994ZM26.8372 34.123C26.2174 34.123 25.6751 33.9681 25.2103 33.6582C24.75 33.3438 24.3922 32.8994 24.137 32.3252C23.8864 31.751 23.7611 31.0742 23.7611 30.2949V30.2812C23.7611 29.4974 23.8864 28.8184 24.137 28.2441C24.3877 27.6699 24.7432 27.2279 25.2034 26.918C25.6637 26.6035 26.2083 26.4463 26.8372 26.4463C27.179 26.4463 27.498 26.501 27.7943 26.6104C28.0905 26.7152 28.3525 26.8656 28.5804 27.0615C28.8083 27.2529 28.9883 27.4831 29.1204 27.752H29.2298V23.6641H30.72V34H29.2298V32.8311H29.1204C28.9746 33.0999 28.79 33.3324 28.5667 33.5283C28.3434 33.7197 28.0859 33.8678 27.7943 33.9727C27.5026 34.0729 27.1836 34.123 26.8372 34.123ZM27.2611 32.8516C27.6712 32.8516 28.0267 32.749 28.3275 32.5439C28.6283 32.3389 28.8584 32.0449 29.0179 31.6621C29.1774 31.2747 29.2572 30.819 29.2572 30.2949V30.2812C29.2572 29.7526 29.1751 29.2969 29.0111 28.9141C28.8516 28.5312 28.6214 28.2373 28.3206 28.0322C28.0244 27.8226 27.6712 27.7178 27.2611 27.7178C26.8509 27.7178 26.4954 27.8226 26.1947 28.0322C25.8984 28.2373 25.6706 28.5312 25.5111 28.9141C25.3561 29.2923 25.2786 29.748 25.2786 30.2812V30.2949C25.2786 30.8236 25.3561 31.2793 25.5111 31.6621C25.6706 32.0449 25.8984 32.3389 26.1947 32.5439C26.4954 32.749 26.8509 32.8516 27.2611 32.8516ZM34.9443 34.123C34.4749 34.123 34.0534 34.0342 33.6797 33.8564C33.3105 33.6742 33.0189 33.4167 32.8047 33.084C32.5905 32.7513 32.4834 32.3617 32.4834 31.915V31.9014C32.4834 31.4548 32.5905 31.0742 32.8047 30.7598C33.0234 30.4453 33.3379 30.1992 33.748 30.0215C34.1628 29.8392 34.6641 29.7298 35.2519 29.6934L37.9932 29.5293V30.5752L35.457 30.7393C34.9466 30.7712 34.5706 30.8805 34.3291 31.0674C34.0876 31.2497 33.9668 31.5072 33.9668 31.8398V31.8535C33.9668 32.1908 34.0967 32.4574 34.3564 32.6533C34.6162 32.8447 34.9443 32.9404 35.3408 32.9404C35.71 32.9404 36.0381 32.8675 36.3252 32.7217C36.6169 32.5713 36.8447 32.3708 37.0088 32.1201C37.1728 31.8649 37.2549 31.5778 37.2549 31.2588V28.9209C37.2549 28.5107 37.1273 28.1986 36.8721 27.9844C36.6214 27.7656 36.2477 27.6562 35.751 27.6562C35.3363 27.6562 34.9967 27.7292 34.7324 27.875C34.4726 28.0208 34.2995 28.2259 34.2129 28.4902L34.1992 28.5107H32.7705L32.7773 28.4629C32.8366 28.0527 32.9984 27.6973 33.2627 27.3965C33.5316 27.0911 33.8825 26.8542 34.3154 26.6855C34.7529 26.5169 35.2519 26.4326 35.8125 26.4326C36.4368 26.4326 36.9655 26.5329 37.3984 26.7334C37.8359 26.9294 38.1663 27.2142 38.3896 27.5879C38.6175 27.957 38.7314 28.4014 38.7314 28.9209V34H37.2549V32.9473H37.1455C36.9997 33.1979 36.8174 33.4121 36.5986 33.5898C36.3799 33.763 36.1315 33.8952 35.8535 33.9863C35.5755 34.0775 35.2725 34.123 34.9443 34.123ZM41.2878 36.6113C41.1966 36.6113 41.0986 36.6068 40.9938 36.5977C40.889 36.5931 40.7887 36.5863 40.693 36.5771V35.4082C40.7659 35.4173 40.8457 35.4242 40.9323 35.4287C41.0234 35.4333 41.11 35.4355 41.192 35.4355C41.5384 35.4355 41.8187 35.3535 42.0329 35.1895C42.2471 35.0299 42.4088 34.7633 42.5182 34.3896L42.6276 34.0068L39.9342 26.5762H41.5407L43.6393 33.2686L43.1745 32.5029H43.7419L43.2838 33.2686L45.3756 26.5762H46.9411L44.1794 34.2803C43.9697 34.8727 43.7373 35.3376 43.4821 35.6748C43.2269 36.0166 42.9238 36.2581 42.5729 36.3994C42.222 36.5407 41.7936 36.6113 41.2878 36.6113Z" fill="black"/>
<path d="M10.7393 114V105.462H7.63574V104.136H15.374V105.462H12.2705V114H10.7393ZM17.1305 114V103.664H18.6139V107.697H18.7301C18.9124 107.301 19.1813 106.991 19.5368 106.768C19.8923 106.544 20.3411 106.433 20.8835 106.433C21.4349 106.433 21.902 106.54 22.2848 106.754C22.6676 106.968 22.9593 107.283 23.1598 107.697C23.3603 108.107 23.4606 108.606 23.4606 109.194V114H21.9704V109.543C21.9704 108.923 21.8405 108.463 21.5807 108.162C21.3255 107.857 20.9245 107.704 20.3776 107.704C20.0176 107.704 19.7054 107.784 19.4411 107.943C19.1768 108.098 18.9717 108.322 18.8258 108.613C18.6846 108.9 18.6139 109.244 18.6139 109.646V114H17.1305ZM25.5316 114V106.576H27.0218V114H25.5316ZM26.2835 105.25C26.0283 105.25 25.8096 105.159 25.6273 104.977C25.445 104.794 25.3538 104.576 25.3538 104.32C25.3538 104.065 25.445 103.849 25.6273 103.671C25.8096 103.489 26.0283 103.397 26.2835 103.397C26.5387 103.397 26.7575 103.489 26.9398 103.671C27.1221 103.849 27.2132 104.065 27.2132 104.32C27.2132 104.576 27.1221 104.794 26.9398 104.977C26.7575 105.159 26.5387 105.25 26.2835 105.25ZM31.8613 114.144C31.2643 114.144 30.7448 114.057 30.3027 113.884C29.8607 113.706 29.5098 113.462 29.25 113.152C28.9902 112.838 28.8376 112.473 28.792 112.059V112.045H30.2822V112.059C30.3779 112.337 30.5602 112.562 30.8291 112.735C31.098 112.909 31.4534 112.995 31.8955 112.995C32.2008 112.995 32.4674 112.952 32.6953 112.865C32.9277 112.779 33.11 112.658 33.2422 112.503C33.3743 112.348 33.4404 112.17 33.4404 111.97V111.956C33.4404 111.724 33.347 111.528 33.1601 111.368C32.9733 111.209 32.6657 111.079 32.2373 110.979L31.0478 110.705C30.583 110.6 30.1979 110.457 29.8926 110.274C29.5872 110.092 29.3616 109.869 29.2158 109.604C29.07 109.336 28.9971 109.021 28.9971 108.661V108.654C28.9971 108.221 29.1201 107.839 29.3662 107.506C29.6123 107.169 29.9518 106.907 30.3848 106.72C30.8223 106.528 31.3213 106.433 31.8818 106.433C32.4469 106.433 32.9391 106.521 33.3584 106.699C33.7822 106.872 34.1172 107.114 34.3633 107.424C34.6094 107.729 34.7552 108.085 34.8008 108.49V108.497H33.3789V108.483C33.3105 108.224 33.1465 108.007 32.8867 107.834C32.6315 107.661 32.2943 107.574 31.875 107.574C31.6061 107.574 31.3669 107.618 31.1572 107.704C30.9476 107.786 30.7812 107.902 30.6582 108.053C30.5397 108.199 30.4805 108.372 30.4805 108.572V108.586C30.4805 108.741 30.5192 108.878 30.5967 108.996C30.6787 109.11 30.8063 109.213 30.9795 109.304C31.1527 109.39 31.376 109.468 31.6494 109.536L32.832 109.803C33.543 109.971 34.0716 110.215 34.418 110.534C34.7689 110.853 34.9443 111.282 34.9443 111.819V111.833C34.9443 112.289 34.8099 112.692 34.541 113.043C34.2721 113.389 33.9053 113.66 33.4404 113.856C32.9801 114.048 32.4538 114.144 31.8613 114.144ZM41.9163 114L39.8724 106.576H41.3695L42.6956 112.305H42.8118L44.3363 106.576H45.7513L47.2825 112.305H47.3919L48.7249 106.576H50.1946L48.1575 114H46.6195L45.0814 108.463H44.9652L43.4407 114H41.9163ZM54.5351 114.144C53.8105 114.144 53.1885 113.989 52.6689 113.679C52.1494 113.364 51.7484 112.92 51.4658 112.346C51.1878 111.771 51.0488 111.092 51.0488 110.309V110.302C51.0488 109.527 51.1878 108.85 51.4658 108.271C51.7484 107.693 52.1448 107.242 52.6553 106.918C53.1702 106.594 53.7718 106.433 54.4599 106.433C55.1527 106.433 55.7474 106.588 56.2441 106.897C56.7454 107.207 57.1305 107.643 57.3994 108.203C57.6683 108.759 57.8027 109.411 57.8027 110.158V110.678H51.8008V109.618H57.0644L56.3535 110.603V110.008C56.3535 109.479 56.2715 109.042 56.1074 108.695C55.9479 108.344 55.7269 108.082 55.4443 107.909C55.1618 107.736 54.8359 107.649 54.4668 107.649C54.0976 107.649 53.7672 107.741 53.4756 107.923C53.1885 108.101 52.9606 108.365 52.792 108.716C52.6279 109.067 52.5459 109.497 52.5459 110.008V110.603C52.5459 111.09 52.6279 111.507 52.792 111.854C52.956 112.2 53.1885 112.464 53.4892 112.646C53.7946 112.829 54.1546 112.92 54.5693 112.92C54.8883 112.92 55.1618 112.877 55.3896 112.79C55.6221 112.699 55.8112 112.587 55.957 112.455C56.1074 112.323 56.2099 112.193 56.2646 112.065L56.292 112.011H57.7275L57.7139 112.072C57.65 112.318 57.5384 112.564 57.3789 112.811C57.2194 113.052 57.0075 113.273 56.7431 113.474C56.4834 113.674 56.1689 113.836 55.7998 113.959C55.4352 114.082 55.0137 114.144 54.5351 114.144ZM62.6696 114.144C61.945 114.144 61.3229 113.989 60.8034 113.679C60.2838 113.364 59.8828 112.92 59.6002 112.346C59.3222 111.771 59.1833 111.092 59.1833 110.309V110.302C59.1833 109.527 59.3222 108.85 59.6002 108.271C59.8828 107.693 60.2793 107.242 60.7897 106.918C61.3047 106.594 61.9062 106.433 62.5944 106.433C63.2871 106.433 63.8818 106.588 64.3786 106.897C64.8799 107.207 65.265 107.643 65.5338 108.203C65.8027 108.759 65.9372 109.411 65.9372 110.158V110.678H59.9352V109.618H65.1989L64.4879 110.603V110.008C64.4879 109.479 64.4059 109.042 64.2418 108.695C64.0823 108.344 63.8613 108.082 63.5788 107.909C63.2962 107.736 62.9704 107.649 62.6012 107.649C62.2321 107.649 61.9017 107.741 61.61 107.923C61.3229 108.101 61.095 108.365 60.9264 108.716C60.7624 109.067 60.6803 109.497 60.6803 110.008V110.603C60.6803 111.09 60.7624 111.507 60.9264 111.854C61.0905 112.2 61.3229 112.464 61.6237 112.646C61.929 112.829 62.289 112.92 62.7038 112.92C63.0228 112.92 63.2962 112.877 63.5241 112.79C63.7565 112.699 63.9456 112.587 64.0915 112.455C64.2418 112.323 64.3444 112.193 64.3991 112.065L64.4264 112.011H65.862L65.8483 112.072C65.7845 112.318 65.6728 112.564 65.5133 112.811C65.3538 113.052 65.1419 113.273 64.8776 113.474C64.6178 113.674 64.3034 113.836 63.9342 113.959C63.5696 114.082 63.1481 114.144 62.6696 114.144ZM67.7552 114V103.664H69.2386V114H67.7552ZM72.431 114L69.765 110.521L70.8655 109.598L74.2425 114H72.431ZM69.095 111.45L69.0335 109.7H69.3548L72.2943 106.576H74.0374L70.6878 109.967L70.1136 110.438L69.095 111.45Z" fill="black"/>
<path d="M10.7393 194V185.462H7.63574V184.136H15.374V185.462H12.2705V194H10.7393ZM17.1305 194V183.664H18.6139V187.697H18.7301C18.9124 187.301 19.1813 186.991 19.5368 186.768C19.8923 186.544 20.3411 186.433 20.8835 186.433C21.4349 186.433 21.902 186.54 22.2848 186.754C22.6676 186.968 22.9593 187.283 23.1598 187.697C23.3603 188.107 23.4606 188.606 23.4606 189.194V194H21.9704V189.543C21.9704 188.923 21.8405 188.463 21.5807 188.162C21.3255 187.857 20.9245 187.704 20.3776 187.704C20.0176 187.704 19.7054 187.784 19.4411 187.943C19.1768 188.098 18.9717 188.322 18.8258 188.613C18.6846 188.9 18.6139 189.244 18.6139 189.646V194H17.1305ZM25.5316 194V186.576H27.0218V194H25.5316ZM26.2835 185.25C26.0283 185.25 25.8096 185.159 25.6273 184.977C25.445 184.794 25.3538 184.576 25.3538 184.32C25.3538 184.065 25.445 183.849 25.6273 183.671C25.8096 183.489 26.0283 183.397 26.2835 183.397C26.5387 183.397 26.7575 183.489 26.9398 183.671C27.1221 183.849 27.2132 184.065 27.2132 184.32C27.2132 184.576 27.1221 184.794 26.9398 184.977C26.7575 185.159 26.5387 185.25 26.2835 185.25ZM31.8613 194.144C31.2643 194.144 30.7448 194.057 30.3027 193.884C29.8607 193.706 29.5098 193.462 29.25 193.152C28.9902 192.838 28.8376 192.473 28.792 192.059V192.045H30.2822V192.059C30.3779 192.337 30.5602 192.562 30.8291 192.735C31.098 192.909 31.4534 192.995 31.8955 192.995C32.2008 192.995 32.4674 192.952 32.6953 192.865C32.9277 192.779 33.11 192.658 33.2422 192.503C33.3743 192.348 33.4404 192.17 33.4404 191.97V191.956C33.4404 191.724 33.347 191.528 33.1601 191.368C32.9733 191.209 32.6657 191.079 32.2373 190.979L31.0478 190.705C30.583 190.6 30.1979 190.457 29.8926 190.274C29.5872 190.092 29.3616 189.869 29.2158 189.604C29.07 189.336 28.9971 189.021 28.9971 188.661V188.654C28.9971 188.221 29.1201 187.839 29.3662 187.506C29.6123 187.169 29.9518 186.907 30.3848 186.72C30.8223 186.528 31.3213 186.433 31.8818 186.433C32.4469 186.433 32.9391 186.521 33.3584 186.699C33.7822 186.872 34.1172 187.114 34.3633 187.424C34.6094 187.729 34.7552 188.085 34.8008 188.49V188.497H33.3789V188.483C33.3105 188.224 33.1465 188.007 32.8867 187.834C32.6315 187.661 32.2943 187.574 31.875 187.574C31.6061 187.574 31.3669 187.618 31.1572 187.704C30.9476 187.786 30.7812 187.902 30.6582 188.053C30.5397 188.199 30.4805 188.372 30.4805 188.572V188.586C30.4805 188.741 30.5192 188.878 30.5967 188.996C30.6787 189.11 30.8063 189.213 30.9795 189.304C31.1527 189.39 31.376 189.468 31.6494 189.536L32.832 189.803C33.543 189.971 34.0716 190.215 34.418 190.534C34.7689 190.853 34.9443 191.282 34.9443 191.819V191.833C34.9443 192.289 34.8099 192.692 34.541 193.043C34.2721 193.389 33.9053 193.66 33.4404 193.856C32.9801 194.048 32.4538 194.144 31.8613 194.144ZM40.4945 194V186.576H41.9779V187.718H42.0941C42.2581 187.308 42.5133 186.991 42.8597 186.768C43.2106 186.544 43.6299 186.433 44.1175 186.433C44.4547 186.433 44.7578 186.487 45.0267 186.597C45.2956 186.706 45.5257 186.861 45.7171 187.062C45.9131 187.257 46.0657 187.49 46.1751 187.759H46.2913C46.4144 187.49 46.5876 187.257 46.8109 187.062C47.0342 186.861 47.2939 186.706 47.5902 186.597C47.8909 186.487 48.2099 186.433 48.5472 186.433C49.0485 186.433 49.4769 186.531 49.8323 186.727C50.1878 186.918 50.459 187.196 50.6458 187.561C50.8327 187.925 50.9261 188.365 50.9261 188.88V194H49.4427V189.235C49.4427 188.894 49.3903 188.611 49.2855 188.388C49.1807 188.16 49.0211 187.989 48.807 187.875C48.5973 187.761 48.333 187.704 48.014 187.704C47.6995 187.704 47.4238 187.777 47.1868 187.923C46.9544 188.064 46.7721 188.256 46.64 188.497C46.5124 188.734 46.4486 189.003 46.4486 189.304V194H44.9652V189.085C44.9652 188.802 44.9059 188.559 44.7874 188.354C44.6735 188.144 44.5094 187.984 44.2952 187.875C44.081 187.761 43.8281 187.704 43.5364 187.704C43.2402 187.704 42.9736 187.782 42.7366 187.937C42.5042 188.091 42.3196 188.301 42.1829 188.565C42.0462 188.825 41.9779 189.117 41.9779 189.44V194H40.4945ZM56.1348 194.144C55.4101 194.144 54.7835 193.989 54.2549 193.679C53.7308 193.369 53.3275 192.927 53.0449 192.353C52.7624 191.774 52.6211 191.088 52.6211 190.295V190.281C52.6211 189.484 52.7624 188.798 53.0449 188.224C53.332 187.649 53.7376 187.207 54.2617 186.897C54.7903 186.588 55.4147 186.433 56.1348 186.433C56.8594 186.433 57.4837 186.588 58.0078 186.897C58.5319 187.203 58.9352 187.645 59.2178 188.224C59.5049 188.798 59.6484 189.484 59.6484 190.281V190.295C59.6484 191.088 59.5049 191.774 59.2178 192.353C58.9352 192.927 58.5319 193.369 58.0078 193.679C57.4883 193.989 56.8639 194.144 56.1348 194.144ZM56.1348 192.899C56.5586 192.899 56.9186 192.797 57.2148 192.592C57.5111 192.382 57.7366 192.084 57.8916 191.696C58.0465 191.309 58.124 190.842 58.124 190.295V190.281C58.124 189.73 58.0465 189.26 57.8916 188.873C57.7366 188.486 57.5111 188.189 57.2148 187.984C56.9186 187.775 56.5586 187.67 56.1348 187.67C55.7109 187.67 55.3509 187.775 55.0547 187.984C54.7584 188.189 54.5306 188.486 54.3711 188.873C54.2161 189.26 54.1387 189.73 54.1387 190.281V190.295C54.1387 190.842 54.2161 191.309 54.3711 191.696C54.5306 192.084 54.7584 192.382 55.0547 192.592C55.3509 192.797 55.7109 192.899 56.1348 192.899ZM61.3981 194V186.576H62.8815V187.697H62.9977C63.18 187.301 63.4489 186.991 63.8043 186.768C64.1598 186.544 64.6087 186.433 65.151 186.433C65.985 186.433 66.623 186.672 67.0651 187.15C67.5071 187.629 67.7282 188.31 67.7282 189.194V194H66.2379V189.543C66.2379 188.923 66.1081 188.463 65.8483 188.162C65.5931 187.857 65.192 187.704 64.6452 187.704C64.2851 187.704 63.973 187.784 63.7086 187.943C63.4443 188.098 63.2392 188.322 63.0934 188.613C62.9521 188.9 62.8815 189.244 62.8815 189.646V194H61.3981ZM72.5814 194.048C71.7702 194.048 71.1823 193.893 70.8177 193.583C70.4577 193.269 70.2776 192.756 70.2776 192.045V187.745H69.1155V186.576H70.2776V184.703H71.7952V186.576H73.388V187.745H71.7952V191.683C71.7952 192.084 71.875 192.373 72.0345 192.551C72.194 192.724 72.4583 192.811 72.8275 192.811C72.9368 192.811 73.0303 192.808 73.1077 192.804C73.1898 192.799 73.2832 192.792 73.388 192.783V193.973C73.2695 193.991 73.1419 194.007 73.0052 194.021C72.8685 194.039 72.7272 194.048 72.5814 194.048ZM75.1787 194V183.664H76.6621V187.697H76.7783C76.9606 187.301 77.2295 186.991 77.5849 186.768C77.9404 186.544 78.3893 186.433 78.9316 186.433C79.4831 186.433 79.9502 186.54 80.333 186.754C80.7158 186.968 81.0075 187.283 81.208 187.697C81.4085 188.107 81.5088 188.606 81.5088 189.194V194H80.0185V189.543C80.0185 188.923 79.8886 188.463 79.6289 188.162C79.3737 187.857 78.9726 187.704 78.4258 187.704C78.0657 187.704 77.7536 187.784 77.4892 187.943C77.2249 188.098 77.0198 188.322 76.874 188.613C76.7327 188.9 76.6621 189.244 76.6621 189.646V194H75.1787Z" fill="black"/>
<path d="M12.4414 274.239C11.4844 274.239 10.6618 274.03 9.97363 273.61C9.28548 273.187 8.75684 272.587 8.3877 271.812C8.01855 271.038 7.83398 270.124 7.83398 269.071V269.058C7.83398 267.996 8.02083 267.08 8.39453 266.31C8.76823 265.539 9.29915 264.945 9.9873 264.525C10.68 264.106 11.498 263.896 12.4414 263.896C13.3893 263.896 14.2074 264.106 14.8955 264.525C15.5837 264.945 16.1123 265.542 16.4814 266.316C16.8551 267.087 17.042 268 17.042 269.058V269.071C17.042 270.124 16.8574 271.038 16.4883 271.812C16.1191 272.583 15.5882 273.18 14.8955 273.604C14.2074 274.027 13.3893 274.239 12.4414 274.239ZM12.4414 272.879C13.0612 272.879 13.599 272.722 14.0547 272.407C14.5104 272.093 14.8613 271.651 15.1074 271.081C15.3535 270.507 15.4766 269.837 15.4766 269.071V269.058C15.4766 268.283 15.3535 267.611 15.1074 267.041C14.8613 266.471 14.5104 266.032 14.0547 265.722C13.599 265.412 13.0612 265.257 12.4414 265.257C11.8216 265.257 11.2839 265.412 10.8281 265.722C10.377 266.032 10.026 266.471 9.77539 267.041C9.52474 267.611 9.39941 268.283 9.39941 269.058V269.071C9.39941 269.837 9.52018 270.507 9.76172 271.081C10.0078 271.651 10.3564 272.093 10.8076 272.407C11.2633 272.722 11.8079 272.879 12.4414 272.879ZM20.9792 274L18.2926 266.576H19.8717L21.7243 272.496H21.8337L23.6794 266.576H25.2448L22.5651 274H20.9792ZM29.5579 274.144C28.8333 274.144 28.2113 273.989 27.6917 273.679C27.1722 273.364 26.7712 272.92 26.4886 272.346C26.2106 271.771 26.0716 271.092 26.0716 270.309V270.302C26.0716 269.527 26.2106 268.85 26.4886 268.271C26.7712 267.693 27.1676 267.242 27.6781 266.918C28.193 266.594 28.7946 266.433 29.4827 266.433C30.1755 266.433 30.7702 266.588 31.2669 266.897C31.7682 267.207 32.1533 267.643 32.4222 268.203C32.6911 268.759 32.8255 269.411 32.8255 270.158V270.678H26.8236V269.618H32.0872L31.3763 270.603V270.008C31.3763 269.479 31.2943 269.042 31.1302 268.695C30.9707 268.344 30.7497 268.082 30.4671 267.909C30.1846 267.736 29.8587 267.649 29.4896 267.649C29.1204 267.649 28.79 267.741 28.4984 267.923C28.2113 268.101 27.9834 268.365 27.8148 268.716C27.6507 269.067 27.5687 269.497 27.5687 270.008V270.603C27.5687 271.09 27.6507 271.507 27.8148 271.854C27.9788 272.2 28.2113 272.464 28.512 272.646C28.8174 272.829 29.1774 272.92 29.5921 272.92C29.9111 272.92 30.1846 272.877 30.4124 272.79C30.6449 272.699 30.834 272.587 30.9798 272.455C31.1302 272.323 31.2327 272.193 31.2874 272.065L31.3148 272.011H32.7503L32.7366 272.072C32.6728 272.318 32.5612 272.564 32.4017 272.811C32.2422 273.052 32.0303 273.273 31.7659 273.474C31.5062 273.674 31.1917 273.836 30.8226 273.959C30.458 274.082 30.0365 274.144 29.5579 274.144ZM34.5752 274V266.576H36.0586V267.697H36.1748C36.307 267.301 36.5394 266.993 36.8721 266.774C37.2093 266.556 37.624 266.446 38.1162 266.446C38.2393 266.446 38.36 266.453 38.4785 266.467C38.597 266.48 38.6927 266.496 38.7656 266.515V267.882C38.6335 267.854 38.5013 267.834 38.3691 267.82C38.2415 267.807 38.1071 267.8 37.9658 267.8C37.5876 267.8 37.2549 267.873 36.9678 268.019C36.6852 268.164 36.4619 268.369 36.2978 268.634C36.1383 268.894 36.0586 269.203 36.0586 269.563V274H34.5752ZM46.7835 274.048C45.9723 274.048 45.3844 273.893 45.0198 273.583C44.6598 273.269 44.4798 272.756 44.4798 272.045V267.745H43.3177V266.576H44.4798V264.703H45.9974V266.576H47.5902V267.745H45.9974V271.683C45.9974 272.084 46.0771 272.373 46.2366 272.551C46.3961 272.724 46.6605 272.811 47.0296 272.811C47.139 272.811 47.2324 272.808 47.3099 272.804C47.3919 272.799 47.4853 272.792 47.5902 272.783V273.973C47.4717 273.991 47.3441 274.007 47.2073 274.021C47.0706 274.039 46.9293 274.048 46.7835 274.048ZM49.333 274V266.576H50.8232V274H49.333ZM50.0849 265.25C49.8297 265.25 49.611 265.159 49.4287 264.977C49.2464 264.794 49.1553 264.576 49.1553 264.32C49.1553 264.065 49.2464 263.849 49.4287 263.671C49.611 263.489 49.8297 263.397 50.0849 263.397C50.3402 263.397 50.5589 263.489 50.7412 263.671C50.9235 263.849 51.0146 264.065 51.0146 264.32C51.0146 264.576 50.9235 264.794 50.7412 264.977C50.5589 265.159 50.3402 265.25 50.0849 265.25ZM52.9625 274V266.576H54.4459V267.718H54.5622C54.7262 267.308 54.9814 266.991 55.3278 266.768C55.6787 266.544 56.098 266.433 56.5856 266.433C56.9228 266.433 57.2259 266.487 57.4948 266.597C57.7637 266.706 57.9938 266.861 58.1852 267.062C58.3812 267.257 58.5338 267.49 58.6432 267.759H58.7594C58.8825 267.49 59.0556 267.257 59.279 267.062C59.5023 266.861 59.762 266.706 60.0583 266.597C60.359 266.487 60.678 266.433 61.0153 266.433C61.5166 266.433 61.945 266.531 62.3004 266.727C62.6559 266.918 62.9271 267.196 63.1139 267.561C63.3008 267.925 63.3942 268.365 63.3942 268.88V274H61.9108V269.235C61.9108 268.894 61.8584 268.611 61.7536 268.388C61.6487 268.16 61.4892 267.989 61.275 267.875C61.0654 267.761 60.8011 267.704 60.4821 267.704C60.1676 267.704 59.8919 267.777 59.6549 267.923C59.4225 268.064 59.2402 268.256 59.1081 268.497C58.9805 268.734 58.9166 269.003 58.9166 269.304V274H57.4333V269.085C57.4333 268.802 57.374 268.559 57.2555 268.354C57.1416 268.144 56.9775 267.984 56.7633 267.875C56.5491 267.761 56.2962 267.704 56.0045 267.704C55.7083 267.704 55.4417 267.782 55.2047 267.937C54.9723 268.091 54.7877 268.301 54.651 268.565C54.5143 268.825 54.4459 269.117 54.4459 269.44V274H52.9625ZM68.5755 274.144C67.8509 274.144 67.2288 273.989 66.7093 273.679C66.1898 273.364 65.7887 272.92 65.5062 272.346C65.2282 271.771 65.0892 271.092 65.0892 270.309V270.302C65.0892 269.527 65.2282 268.85 65.5062 268.271C65.7887 267.693 66.1852 267.242 66.6956 266.918C67.2106 266.594 67.8122 266.433 68.5003 266.433C69.193 266.433 69.7877 266.588 70.2845 266.897C70.7858 267.207 71.1709 267.643 71.4398 268.203C71.7086 268.759 71.8431 269.411 71.8431 270.158V270.678H65.8411V269.618H71.1048L70.3939 270.603V270.008C70.3939 269.479 70.3118 269.042 70.1478 268.695C69.9883 268.344 69.7672 268.082 69.4847 267.909C69.2021 267.736 68.8763 267.649 68.5071 267.649C68.138 267.649 67.8076 267.741 67.5159 267.923C67.2288 268.101 67.001 268.365 66.8323 268.716C66.6683 269.067 66.5862 269.497 66.5862 270.008V270.603C66.5862 271.09 66.6683 271.507 66.8323 271.854C66.9964 272.2 67.2288 272.464 67.5296 272.646C67.8349 272.829 68.195 272.92 68.6097 272.92C68.9287 272.92 69.2021 272.877 69.43 272.79C69.6624 272.699 69.8515 272.587 69.9974 272.455C70.1478 272.323 70.2503 272.193 70.305 272.065L70.3323 272.011H71.7679L71.7542 272.072C71.6904 272.318 71.5788 272.564 71.4193 272.811C71.2597 273.052 71.0478 273.273 70.7835 273.474C70.5237 273.674 70.2093 273.836 69.8401 273.959C69.4756 274.082 69.054 274.144 68.5755 274.144Z" fill="black"/>
<defs>
<filter id="filter0_f_1310_1413" x="118" y="0" width="358" height="328" filterUnits="userSpaceOnUse" color-interpolation-filters="sRGB">
<feFlood flood-opacity="0" result="BackgroundImageFix"/>
<feBlend mode="normal" in="SourceGraphic" in2="BackgroundImageFix" result="shape"/>
<feGaussianBlur stdDeviation="10" result="effect1_foregroundBlur_1310_1413"/>
</filter>
<filter id="filter1_f_1310_1413" x="147.05" y="186.8" width="38.4" height="38.4" filterUnits="userSpaceOnUse" color-interpolation-filters="sRGB">
<feFlood flood-opacity="0" result="BackgroundImageFix"/>
<feBlend mode="normal" in="SourceGraphic" in2="BackgroundImageFix" result="shape"/>
<feGaussianBlur stdDeviation="3.6" result="effect1_foregroundBlur_1310_1413"/>
</filter>
</defs>
</svg>
